# xmcd
#
# Track frame offsets: 
#        150
#        8959
#        17474
#        27376
#        36845
#        46565
#        55658
#        65061
#        73436
#        86261
#        94952
#        102244
#        116413
#        130907
#        145690
#
# Disc length: 2101 seconds
#
# Revision: 0
# Processed by: cddbd v1.5.2PL0 Copyright (c) Steve Scherf et al.
# Submitted via: ExactAudioCopy v1.0b3
#
DISCID=c408330f
DTITLE=Various Artist - Peace In The Valley - I'll Fly Away
DYEAR=2011
DGENRE=Country
TTITLE0=Tommy Overstreet - I'll Fly Away
TTITLE1=Masters V - The Unclouded Day
TTITLE2=The Jordanaires - When The Roll Is Called Up Yonder
TTITLE3=The Oak Ridge Boys - I Know Who Holds Tomorrow
TTITLE4=Hovie Lister and The Statesmen - In My Fathers House
TTITLE5=The Carter Family - I'm Glory Bound
TTITLE6=The Kingsmen - King Jesus
TTITLE7=The Speers - I Live In Glory
TTITLE8=The Oak Ridge Boys - In The Shelter of His Arms
TTITLE9=Blackwood Brothers - I Bowed My Knees and Cried Holy
TTITLE10=The Jordainaires - All Hail The Power
TTITLE11=Masters V - Faith Unlocks The Door
TTITLE12=Tommy Overstreet - I Don't Run From The Devil Anymore
TTITLE13=Masters V - It's All In The Blood
TTITLE14=Wendy Bagwell - Do You Remember?
EXTD=
EXTT0=
EXTT1=
EXTT2=
EXTT3=
EXTT4=
EXTT5=
EXTT6=
EXTT7=
EXTT8=
EXTT9=
EXTT10=
EXTT11=
EXTT12=
EXTT13=
EXTT14=
PLAYORDER=
